<svg width="350" height="51" viewBox="0 0 350 51" fill="none" xmlns="http://www.w3.org/2000/svg">
<rect x="0.5" y="0.5" width="349" height="50" rx="25" stroke="white" stroke-opacity="0.7"/>
<path d="M33.6719 23.4929C33.6188 23.0223 33.4001 22.6577 33.0156 22.3991C32.6312 22.1373 32.1473 22.0064 31.5639 22.0064C31.1463 22.0064 30.785 22.0727 30.4801 22.2053C30.1752 22.3345 29.9382 22.5135 29.7692 22.7422C29.6035 22.9676 29.5206 23.2244 29.5206 23.5128C29.5206 23.7547 29.5769 23.9635 29.6896 24.1392C29.8056 24.3149 29.9564 24.4624 30.142 24.5817C30.331 24.6977 30.5331 24.7955 30.7486 24.875C30.964 24.9512 31.1712 25.0142 31.37 25.0639L32.3643 25.3224C32.6892 25.402 33.0223 25.5097 33.3636 25.6456C33.705 25.7815 34.0215 25.9605 34.3132 26.1825C34.6049 26.4046 34.8402 26.6797 35.0192 27.0078C35.2015 27.3359 35.2926 27.7287 35.2926 28.1861C35.2926 28.7628 35.1435 29.2749 34.8452 29.7223C34.5502 30.1697 34.121 30.5227 33.5575 30.7812C32.9974 31.0398 32.3196 31.169 31.5241 31.169C30.7618 31.169 30.1023 31.0481 29.5455 30.8061C28.9886 30.5642 28.5528 30.2211 28.2379 29.777C27.9231 29.3295 27.7491 28.7992 27.7159 28.1861H29.2571C29.2869 28.554 29.4063 28.8606 29.6151 29.1058C29.8272 29.3478 30.0973 29.5284 30.4254 29.6477C30.7569 29.7637 31.1198 29.8217 31.5142 29.8217C31.9484 29.8217 32.3345 29.7538 32.6726 29.6179C33.014 29.4787 33.2824 29.2865 33.478 29.0412C33.6735 28.7926 33.7713 28.5026 33.7713 28.1712C33.7713 27.8696 33.6851 27.6226 33.5128 27.4304C33.3438 27.2382 33.1134 27.0791 32.8217 26.9531C32.5334 26.8272 32.2069 26.7161 31.8423 26.62L30.6392 26.2919C29.8239 26.0698 29.1776 25.7434 28.7003 25.3125C28.2263 24.8816 27.9893 24.3116 27.9893 23.6023C27.9893 23.0156 28.1484 22.5036 28.4666 22.0661C28.7848 21.6286 29.2157 21.2888 29.7592 21.0469C30.3028 20.8016 30.916 20.679 31.5987 20.679C32.2881 20.679 32.8963 20.8 33.4233 21.0419C33.9536 21.2839 34.3712 21.617 34.6761 22.0412C34.9811 22.4621 35.1402 22.946 35.1534 23.4929H33.6719ZM40.3002 31.1541C39.5479 31.1541 38.8999 30.9934 38.3564 30.6719C37.8161 30.3471 37.3985 29.8913 37.1035 29.3047C36.8118 28.7147 36.666 28.0237 36.666 27.2315C36.666 26.4493 36.8118 25.7599 37.1035 25.1634C37.3985 24.5668 37.8095 24.1011 38.3365 23.7663C38.8668 23.4316 39.4866 23.2642 40.1958 23.2642C40.6267 23.2642 41.0443 23.3355 41.4487 23.478C41.853 23.6205 42.216 23.8442 42.5375 24.1491C42.859 24.4541 43.1125 24.8501 43.2981 25.3374C43.4837 25.8213 43.5765 26.4096 43.5765 27.1023V27.6293H37.5062V26.5156H42.1199C42.1199 26.1245 42.0403 25.7782 41.8812 25.4766C41.7221 25.1716 41.4984 24.9313 41.21 24.7557C40.925 24.58 40.5903 24.4922 40.2058 24.4922C39.7882 24.4922 39.4236 24.5949 39.112 24.8004C38.8038 25.0026 38.5652 25.2678 38.3961 25.5959C38.2304 25.9207 38.1475 26.2737 38.1475 26.6548V27.5249C38.1475 28.0353 38.237 28.4695 38.416 28.8274C38.5983 29.1854 38.8519 29.4588 39.1767 29.6477C39.5015 29.8333 39.881 29.9261 40.3152 29.9261C40.5969 29.9261 40.8538 29.8864 41.0858 29.8068C41.3178 29.724 41.5183 29.6013 41.6873 29.4389C41.8564 29.2765 41.9856 29.076 42.0751 28.8374L43.4821 29.0909C43.3694 29.5052 43.1672 29.8681 42.8755 30.1797C42.5872 30.4879 42.2243 30.7282 41.7868 30.9006C41.3526 31.0696 40.8571 31.1541 40.3002 31.1541ZM47.4482 31.169C46.9643 31.169 46.5268 31.0795 46.1357 30.9006C45.7446 30.7183 45.4347 30.4548 45.206 30.1101C44.9806 29.7654 44.8679 29.3428 44.8679 28.8423C44.8679 28.4115 44.9508 28.0568 45.1165 27.7784C45.2822 27.5 45.5059 27.2796 45.7876 27.1172C46.0694 26.9548 46.3842 26.8321 46.7322 26.7493C47.0803 26.6664 47.4349 26.6035 47.7962 26.5604C48.2536 26.5073 48.6248 26.4643 48.9098 26.4311C49.1948 26.3946 49.402 26.3366 49.5312 26.2571C49.6605 26.1776 49.7251 26.0483 49.7251 25.8693V25.8345C49.7251 25.4003 49.6025 25.0639 49.3572 24.8253C49.1153 24.5866 48.754 24.4673 48.2734 24.4673C47.773 24.4673 47.3786 24.5784 47.0902 24.8004C46.8052 25.0192 46.608 25.2628 46.4986 25.5312L45.1016 25.2131C45.2673 24.7491 45.5092 24.3745 45.8274 24.0895C46.1489 23.8011 46.5185 23.5923 46.9361 23.4631C47.3537 23.3305 47.7929 23.2642 48.2536 23.2642C48.5585 23.2642 48.8816 23.3007 49.223 23.3736C49.5677 23.4432 49.8892 23.5724 50.1875 23.7614C50.4891 23.9503 50.736 24.2204 50.9283 24.5717C51.1205 24.9197 51.2166 25.3722 51.2166 25.929V31H49.7649V29.956H49.7053C49.6091 30.1482 49.465 30.3371 49.2727 30.5227C49.0805 30.7083 48.8336 30.8625 48.532 30.9851C48.2304 31.1077 47.8691 31.169 47.4482 31.169ZM47.7713 29.9759C48.1823 29.9759 48.5336 29.8946 48.8253 29.7322C49.1203 29.5698 49.344 29.3577 49.4964 29.0959C49.6522 28.8307 49.7301 28.5473 49.7301 28.2457V27.2614C49.6771 27.3144 49.5743 27.3641 49.4219 27.4105C49.2727 27.4536 49.102 27.4917 48.9098 27.5249C48.7176 27.5547 48.5303 27.5829 48.348 27.6094C48.1657 27.6326 48.0133 27.6525 47.8906 27.669C47.6023 27.7055 47.3388 27.7668 47.1001 27.853C46.8648 27.9392 46.6759 28.0634 46.5334 28.2259C46.3942 28.3849 46.3246 28.5971 46.3246 28.8622C46.3246 29.2301 46.4605 29.5085 46.7322 29.6974C47.004 29.883 47.3504 29.9759 47.7713 29.9759ZM56.4132 31.1541C55.6741 31.1541 55.0377 30.9867 54.5041 30.652C53.9738 30.3139 53.5661 29.8482 53.2811 29.255C52.996 28.6617 52.8535 27.9822 52.8535 27.2166C52.8535 26.4411 52.9993 25.7566 53.291 25.1634C53.5827 24.5668 53.9937 24.1011 54.524 23.7663C55.0543 23.4316 55.679 23.2642 56.3983 23.2642C56.9783 23.2642 57.4953 23.3719 57.9494 23.5874C58.4035 23.7995 58.7697 24.0978 59.0481 24.4822C59.3298 24.8667 59.4972 25.3158 59.5502 25.8295H58.1035C58.024 25.4716 57.8417 25.1634 57.5566 24.9048C57.2749 24.6463 56.8971 24.517 56.4231 24.517C56.0088 24.517 55.6459 24.6264 55.3343 24.8452C55.0261 25.0606 54.7858 25.3688 54.6135 25.7699C54.4411 26.1676 54.3549 26.6383 54.3549 27.1818C54.3549 27.7386 54.4395 28.2192 54.6085 28.6236C54.7775 29.0279 55.0162 29.3411 55.3244 29.5632C55.6359 29.7853 56.0022 29.8963 56.4231 29.8963C56.7048 29.8963 56.96 29.8449 57.1887 29.7422C57.4208 29.6361 57.6146 29.4853 57.7704 29.2898C57.9295 29.0942 58.0405 28.8589 58.1035 28.5838H59.5502C59.4972 29.0777 59.3365 29.5185 59.068 29.9062C58.7995 30.294 58.4399 30.599 57.9892 30.821C57.5417 31.0431 57.0164 31.1541 56.4132 31.1541ZM62.6264 26.4659V31H61.1399V20.8182H62.6065V24.6065H62.701C62.88 24.1955 63.1534 23.8691 63.5213 23.6271C63.8892 23.3852 64.3698 23.2642 64.9631 23.2642C65.4867 23.2642 65.9441 23.3719 66.3352 23.5874C66.7296 23.8028 67.0346 24.1243 67.25 24.5518C67.4688 24.9761 67.5781 25.5064 67.5781 26.1428V31H66.0916V26.3217C66.0916 25.7616 65.9474 25.3274 65.6591 25.0192C65.3707 24.7076 64.9697 24.5518 64.456 24.5518C64.1046 24.5518 63.7898 24.6264 63.5114 24.7756C63.2363 24.9247 63.0192 25.1435 62.8601 25.4318C62.7043 25.7169 62.6264 26.0616 62.6264 26.4659ZM72.853 31.1541C72.1006 31.1541 71.4527 30.9934 70.9091 30.6719C70.3688 30.3471 69.9512 29.8913 69.6562 29.3047C69.3646 28.7147 69.2188 28.0237 69.2188 27.2315C69.2188 26.4493 69.3646 25.7599 69.6562 25.1634C69.9512 24.5668 70.3622 24.1011 70.8892 23.7663C71.4195 23.4316 72.0393 23.2642 72.7486 23.2642C73.1795 23.2642 73.5971 23.3355 74.0014 23.478C74.4058 23.6205 74.7687 23.8442 75.0902 24.1491C75.4117 24.4541 75.6652 24.8501 75.8509 25.3374C76.0365 25.8213 76.1293 26.4096 76.1293 27.1023V27.6293H70.0589V26.5156H74.6726C74.6726 26.1245 74.593 25.7782 74.4339 25.4766C74.2749 25.1716 74.0511 24.9313 73.7628 24.7557C73.4777 24.58 73.143 24.4922 72.7585 24.4922C72.3409 24.4922 71.9763 24.5949 71.6648 24.8004C71.3565 25.0026 71.1179 25.2678 70.9489 25.5959C70.7831 25.9207 70.7003 26.2737 70.7003 26.6548V27.5249C70.7003 28.0353 70.7898 28.4695 70.9688 28.8274C71.151 29.1854 71.4046 29.4588 71.7294 29.6477C72.0542 29.8333 72.4337 29.9261 72.8679 29.9261C73.1496 29.9261 73.4065 29.8864 73.6385 29.8068C73.8705 29.724 74.071 29.6013 74.2401 29.4389C74.4091 29.2765 74.5384 29.076 74.6278 28.8374L76.0348 29.0909C75.9221 29.5052 75.7199 29.8681 75.4283 30.1797C75.1399 30.4879 74.777 30.7282 74.3395 30.9006C73.9053 31.0696 73.4098 31.1541 72.853 31.1541ZM77.7786 31V23.3636H79.2154V24.5767H79.2949C79.4341 24.1657 79.6794 23.8426 80.0307 23.6072C80.3854 23.3686 80.7864 23.2493 81.2338 23.2493C81.3266 23.2493 81.436 23.2526 81.562 23.2592C81.6912 23.2659 81.7923 23.2741 81.8652 23.2841V24.706C81.8056 24.6894 81.6995 24.6712 81.5471 24.6513C81.3946 24.6281 81.2421 24.6165 81.0897 24.6165C80.7383 24.6165 80.4251 24.6911 80.15 24.8402C79.8783 24.986 79.6628 25.1899 79.5037 25.4517C79.3446 25.7102 79.2651 26.0052 79.2651 26.3366V31H77.7786Z" fill="white" fill-opacity="0.7"/>
<path d="M320.068 17.6265C318.794 17.6265 317.548 18.0043 316.489 18.7123C315.429 19.4203 314.603 20.4266 314.116 21.6039C313.628 22.7813 313.5 24.0768 313.749 25.3266C313.997 26.5764 314.611 27.7245 315.512 28.6256C316.413 29.5267 317.561 30.1403 318.811 30.3889C320.061 30.6376 321.357 30.51 322.534 30.0223C323.711 29.5346 324.718 28.7088 325.425 27.6492C326.133 26.5897 326.511 25.3439 326.511 24.0696C326.511 22.3608 325.832 20.722 324.624 19.5137C323.416 18.3054 321.777 17.6266 320.068 17.6265V17.6265Z" stroke="white" stroke-opacity="0.7" stroke-width="1.00189" stroke-miterlimit="10"/>
<path d="M324.875 28.8767L329.376 33.3784" stroke="white" stroke-opacity="0.7" stroke-width="1.00189" stroke-miterlimit="10" stroke-linecap="round"/>
</svg>
